<svg width="25" height="23" viewBox="0 0 25 23" fill="none" xmlns="http://www.w3.org/2000/svg">
<path fill-rule="evenodd" clip-rule="evenodd" d="M22.9569 0.459885C23.3474 0.85041 23.3474 1.48357 22.9569 1.8741L21.4974 3.33366L24.0403 5.87655C24.4308 6.26708 24.4308 6.90024 24.0403 7.29077L20.2486 11.0824C19.8581 11.473 19.2249 11.473 18.8344 11.0824L16.2915 8.53954L13.2062 11.6248C13.5544 12.0856 13.8446 12.5891 14.0693 13.124C14.4248 13.9701 14.6093 14.8781 14.6124 15.7958C14.6155 16.7135 14.437 17.6228 14.0872 18.4712C13.7375 19.3196 13.2233 20.0905 12.5744 20.7394C11.9255 21.3883 11.1546 21.9025 10.3062 22.2523C9.45775 22.602 8.54851 22.7805 7.63081 22.7774C6.71311 22.7744 5.80509 22.5898 4.95901 22.2343C4.11294 21.8789 3.34553 21.3596 2.70098 20.7063L2.69348 20.6987C1.42596 19.3864 0.724643 17.6287 0.740497 15.8042C0.756351 13.9798 1.48815 12.2345 2.77828 10.9444C4.06842 9.65425 5.81365 8.92245 7.6381 8.9066C9.13142 8.89362 10.58 9.36114 11.7763 10.2263L21.5427 0.459885C21.9332 0.0693611 22.5664 0.0693611 22.9569 0.459885ZM20.0831 4.74787L17.7057 7.12533L19.5415 8.96111L21.9189 6.58366L20.0831 4.74787ZM12.545 12.286C12.1688 12.6623 11.5661 12.6767 11.1726 12.3255C11.1631 12.316 11.1537 12.3065 11.1442 12.2971C11.1417 12.2946 11.1392 12.2921 11.1366 12.2897L11.8372 11.5796M4.12834 19.3054C3.22751 18.3707 2.72914 17.1198 2.74042 15.8216C2.75172 14.5215 3.27318 13.2779 4.1925 12.3586C5.11181 11.4393 6.35542 10.9178 7.65548 10.9065C8.95554 10.8952 10.208 11.395 11.1432 12.2982C11.1528 12.3075 11.1626 12.3166 11.1726 12.3255C11.6212 12.7773 11.9787 13.3114 12.2254 13.8987C12.4787 14.5016 12.6102 15.1486 12.6124 15.8025C12.6146 16.4565 12.4874 17.1044 12.2382 17.7089C11.989 18.3135 11.6226 18.8628 11.1602 19.3252C10.6978 19.7876 10.1485 20.154 9.54392 20.4032C8.93934 20.6525 8.29144 20.7796 7.63751 20.7774C6.98358 20.7753 6.33654 20.6437 5.73365 20.3904C5.13238 20.1378 4.58687 19.7691 4.12834 19.3054ZM4.12834 19.3054C4.12959 19.3067 4.13084 19.308 4.1321 19.3093L3.41281 20.004L4.12464 19.3016C4.12587 19.3029 4.12711 19.3041 4.12834 19.3054ZM12.545 12.286C12.5454 12.2857 12.5457 12.2853 12.5461 12.2849L12.545 12.286Z" fill="#7A9CA5"/>
</svg>
