<svg width="22" height="23" viewBox="0 0 22 23" fill="none" xmlns="http://www.w3.org/2000/svg">
<path fill-rule="evenodd" clip-rule="evenodd" d="M1.27126 3.68826C1.81825 3.14127 2.56011 2.83398 3.33366 2.83398H10.042C10.5943 2.83398 11.042 3.2817 11.042 3.83398C11.042 4.38627 10.5943 4.83398 10.042 4.83398H3.33366C3.09054 4.83398 2.85739 4.93056 2.68548 5.10247C2.51357 5.27438 2.41699 5.50754 2.41699 5.75065V19.1673C2.41699 19.4104 2.51357 19.6436 2.68548 19.8155C2.85739 19.9874 3.09054 20.084 3.33366 20.084H16.7503C16.9934 20.084 17.2266 19.9874 17.3985 19.8155C17.5704 19.6436 17.667 19.4104 17.667 19.1673V12.459C17.667 11.9067 18.1147 11.459 18.667 11.459C19.2193 11.459 19.667 11.9067 19.667 12.459V19.1673C19.667 19.9409 19.3597 20.6827 18.8127 21.2297C18.2657 21.7767 17.5239 22.084 16.7503 22.084H3.33366C2.56011 22.084 1.81824 21.7767 1.27126 21.2297C0.724283 20.6827 0.416992 19.9409 0.416992 19.1673V5.75065C0.416992 4.9771 0.724283 4.23524 1.27126 3.68826Z" fill="#5C8692"/>
<path fill-rule="evenodd" clip-rule="evenodd" d="M18.667 2.80078C18.3931 2.80078 18.1303 2.90961 17.9366 3.10332L9.02831 12.0116L8.54138 13.9593L10.4891 13.4724L19.3974 4.56411C19.5911 4.37039 19.6999 4.10766 19.6999 3.83371C19.6999 3.55976 19.5911 3.29703 19.3974 3.10332C19.2037 2.90961 18.941 2.80078 18.667 2.80078ZM16.5224 1.68911C17.0912 1.12032 17.8626 0.800781 18.667 0.800781C19.4714 0.800781 20.2428 1.12032 20.8116 1.68911C21.3804 2.25789 21.6999 3.02933 21.6999 3.83371C21.6999 4.6381 21.3804 5.40954 20.8116 5.97832L11.7075 15.0825C11.5793 15.2106 11.4187 15.3016 11.2429 15.3455L7.40955 16.3039C7.06877 16.3891 6.70829 16.2892 6.45991 16.0408C6.21153 15.7924 6.11168 15.432 6.19687 15.0912L7.1552 11.2578C7.19916 11.082 7.29008 10.9214 7.41824 10.7933L16.5224 1.68911Z" fill="#5C8692"/>
</svg>
